Coordinates
version=1
nRows=16
nColumns=36
inDegrees=yes

Units are S.I. units (second, meters, Newtons, ...)
If the header above contains a line with 'inDegrees', this indicates whether rotational values are in degrees (yes) or radians (no).

endheader
time	pelvis_tilt	pelvis_list	pelvis_rotation	pelvis_tx	pelvis_ty	pelvis_tz	hip_flexion_r	hip_adduction_r	hip_rotation_r	knee_angle_r	knee_angle_r_beta	ankle_angle_r	subtalar_angle_r	mtp_angle_r	hip_flexion_l	hip_adduction_l	hip_rotation_l	knee_angle_l	knee_angle_l_beta	ankle_angle_l	subtalar_angle_l	mtp_angle_l	lumbar_extension	lumbar_bending	lumbar_rotation	arm_flex_r	arm_add_r	arm_rot_r	elbow_flex_r	pro_sup_r	arm_flex_l	arm_add_l	arm_rot_l	elbow_flex_l	pro_sup_l
      1.42000000	    -25.53053844	     -0.09958017	      2.07005058	     -0.25457934	      0.67976061	     -0.58590241	     83.48980751	    -14.49626862	      6.03407437	     92.66696040	      1.61734357	     32.31186245	     -4.18029604	     -7.50421524	     85.15318236	     -8.90292018	      8.27268067	     89.75732964	      1.56656093	     25.36067625	     -6.24079404	     -7.50421524	    -26.42367273	      0.40195179	     -9.92520402	    114.97591464	    -35.01999888	     47.39728645	    102.77746749	     82.34122663	      5.53389315	    -93.92288495	    -56.39487160	    135.67583350	    101.96752863
      1.43000000	    -25.13336794	     -0.17316296	      2.25802754	     -0.24939937	      0.69168900	     -0.58571420	     81.42323534	    -14.77324537	      5.29794223	     90.89706147	      1.58645300	     31.70165454	     -4.04666219	     -7.50412780	     83.21530025	     -8.92434743	      7.94255103	     87.96796418	      1.53533061	     24.64988872	     -6.19695626	     -7.50412780	    -26.00900051	      0.48997542	     -9.12530956	    115.14045988	    -36.80182452	     47.74604175	    104.39371983	     82.50532767	      5.67430690	    -92.69074344	    -56.20330841	    137.32724635	    102.19960223
      1.44000000	    -24.65158426	     -0.03106394	      2.30395494	     -0.24398928	      0.70456419	     -0.58526272	     79.26480932	    -14.98976220	      4.75475609	     88.96183912	      1.55267700	     31.15136269	     -3.74406094	     -7.50410314	     80.95735579	     -9.05898127	      7.35661303	     85.95015438	      1.50011319	     24.06692854	     -5.92637714	     -7.50410314	    -25.42259449	      0.32570915	     -8.39124250	    114.73397604	    -38.31746225	     47.93153644	    105.81091673	     82.64050334	      5.45441908	    -91.21900128	    -55.83082800	    139.17481466	    102.44583945
      1.45000000	    -24.08510845	      0.05597990	      2.28038152	     -0.23841565	      0.71827988	     -0.58469011	     76.88462417	    -15.12348368	      4.07034348	     86.82011433	      1.51529685	     30.42761441	     -3.47006353	     -7.50407600	     78.55332934	     -9.30784023	      6.74186694	     83.79402446	      1.46248162	     23.26879298	     -5.70952897	     -7.50407600	    -24.96187652	      0.16476675	     -7.38809315	    114.40798659	    -40.44898207	     48.14027310	    107.87099983	     82.82678027	      5.20211517	    -89.66038156	    -55.50368557	    141.27557461	    102.73272754
      1.46000000	    -23.45891999	     -0.01388384	      2.23762298	     -0.23266491	      0.73280210	     -0.58399422	     74.24272146	    -15.13467839	      3.15043153	     84.39777654	      1.47301908	     29.29405689	     -3.66571590	     -7.50400154	     76.07162260	     -9.65978805	      6.21605385	     81.45846544	      1.42171843	     21.90473854	     -5.93797154	     -7.50400154	    -24.72268921	      0.04945555	     -6.00098675	    114.56523352	    -43.78270774	     48.76298048	    110.87004251	     83.05863072	      4.83539180	    -88.38057307	    -55.57099981	    143.45038715	    103.08503505
      1.47000000	    -22.72584903	      0.06585469	      2.17781272	     -0.22645642	      0.74841516	     -0.58345017	     71.39677462	    -15.22160554	      2.31977604	     81.75448767	      1.42688499	     28.21147352	     -3.69698018	     -7.50393816	     73.23982659	     -9.96362761	      5.45137609	     78.84549831	      1.37611355	     20.65536967	     -5.88450767	     -7.50393816	    -24.26898050	     -0.08587783	     -4.78599017	    114.08287192	    -46.50842497	     49.15349936	    113.24608909	     83.21410447	      3.71651407	    -86.48579797	    -55.42352274	    145.70487039	    103.50682378
      1.48000000	    -21.97557961	      0.13818105	      2.17887158	     -0.21993894	      0.76478461	     -0.58313599	     68.39634994	    -15.38944208	      1.34901480	     78.89955835	      1.37705707	     27.19317391	     -3.47938631	     -7.50389907	     70.29922200	    -10.24138359	      4.58084012	     76.01746106	      1.32675498	     19.45317133	     -5.53041555	     -7.50389907	    -23.57932618	     -0.12851640	     -3.72144664	    113.08194467	    -48.98434649	     49.52735369	    115.35984498	     83.36318795	      2.15213520	    -84.30308888	    -54.83203466	    147.79870896	    103.93701636
      1.49000000	    -21.59539873	      0.24315870	      2.25918382	     -0.21331644	      0.78080578	     -0.58194412	     65.77202090	    -15.44412996	      0.42109073	     75.92218780	      1.32509215	     25.29571946	     -4.35746648	     -7.50035812	     67.70237518	    -10.41767105	      3.77468871	     72.94082662	      1.27305758	     17.11474818	     -6.11712504	     -7.50035812	    -25.80317613	     -0.97101156	    -21.07087462	    102.03437263	    -30.08424445	     37.50974561	    109.00509647	     82.23589255	    -79.73876699	    -47.67108700	   -157.91350985	    149.65439397	    112.89579810
      1.50000000	    -20.84449845	     -0.08425607	      2.37397775	     -0.20695377	      0.79802049	     -0.58154597	     62.46015418	    -15.27775914	     -0.97114823	     72.56675856	      1.26652886	     23.45921158	     -4.76853412	     -7.50034368	     64.86797850	    -10.73816193	      3.35221830	     69.83569670	      1.21886284	     15.02567528	     -6.12929205	     -7.50034368	    -25.17996381	     -0.85055123	    -21.52481745	     99.47003095	    -30.53519091	     36.99273514	    109.68918230	     83.23620825	    -78.02496363	    -43.75950224	   -157.61760444	    149.76649616	    115.19114847
      1.51000000	    -20.03439003	     -0.19704522	      2.44445089	     -0.20035483	      0.81614861	     -0.58106272	     59.07973333	    -15.11877316	     -2.11784652	     68.99835888	      1.20424854	     21.40644096	     -4.95884737	     -7.50033224	     61.71886541	    -10.96477892	      2.65862825	     66.38739913	      1.15867870	     12.81122457	     -6.05127521	     -7.50033224	    -24.50428741	     -1.02251962	    -21.87432600	     96.40265528	    -31.15955202	     36.57451718	    110.17690601	     83.99092655	    -76.44967973	    -40.21557469	   -156.90133400	    149.82343227	    116.79273138
      1.52000000	    -19.25569666	     -0.01805080	      2.38880982	     -0.19364866	      0.83496354	     -0.58026788	     55.79511714	    -14.94747794	     -2.81025108	     65.26169173	      1.13903140	     19.59049716	     -4.38992108	     -7.50032918	     58.31228338	    -11.13545596	      1.54989099	     62.55300074	      1.09175582	     10.85973432	     -5.18876553	     -7.50032918	    -23.70818085	     -1.58356279	    -22.04968707	     93.15586537	    -32.08600115	     36.88330230	    110.69752684	     84.21057297	    -75.24156606	    -37.05555586	   -155.77272038	    149.85891623	    117.40118177
      1.53000000	    -18.59592367	      0.27551107	      2.37105367	     -0.18682637	      0.85471264	     -0.57938266	     52.53468077	    -14.78345874	     -3.41607249	     61.12497844	      1.06683213	     16.00062231	     -5.70127298	     -7.50031581	     54.81893841	    -11.10070807	      0.28480759	     58.18226716	      1.01547213	      7.05359626	     -5.94399637	     -7.50031581	    -22.58391820	     -2.29290709	    -22.57250407	     88.73067734	    -31.80985865	     36.02270364	    109.83359917	     84.93099377	    -73.82713230	    -33.58992066	   -153.24974128	    149.88358749	    118.06606690
      1.54000000	    -17.93160392	      0.46586064	      2.33705196	     -0.17975013	      0.87547153	     -0.57848916	     48.97932109	    -14.44578759	     -4.03305731	     56.43381035	      0.98495580	     12.57328879	     -6.12994454	     -7.50028803	     51.14205244	    -11.10219878	     -0.92160032	     53.38343582	      0.93171672	      3.51254438	     -5.61298623	     -7.50028803	    -21.19648399	     -2.69498000	    -22.54489460	     84.57509983	    -31.83983149	     36.24017552	    108.61850359	     86.41567915	    -71.90970808	    -31.17812127	   -148.06146042	    149.90242233	    118.40865324
      1.55000000	    -17.39623368	      0.67321183	      2.37208795	     -0.17215958	      0.89728757	     -0.57779949	     45.22927953	    -14.12585636	     -4.68748867	     51.09640248	      0.89180046	      8.59795925	     -6.54614170	     -7.50027312	     47.31032643	    -10.95638962	     -2.25539680	     47.94744817	      0.83684084	     -0.79518990	     -5.32678170	     -7.50027312	    -19.35521444	     -2.91833453	    -22.45979928	     80.04288901	    -31.40501408	     36.56713211	    106.73126272	     87.03541937	    -69.45706388	    -29.06756356	   -139.76632961	    149.91545317	    118.64993498
      1.56000000	    -17.11169949	      0.56194718	      2.41853708	     -0.16328805	      0.92048524	     -0.57778847	     41.08224804	    -13.51158632	     -5.69306346	     44.60826856	      0.77856116	      4.09378766	     -6.09403316	     -7.50023701	     43.46162229	    -11.01167234	     -3.62058762	     41.86416113	      0.73066745	     -5.62109396	     -3.93515000	     -7.50023701	    -15.79257607	     -1.74203984	    -19.26201955	     75.75669386	    -33.66274254	     38.52410585	    105.38759853	     89.12677016	    -63.68095830	    -32.19102853	   -114.17843461	    149.92379672	    118.85669820
      1.57000000	    -17.12613213	      0.34794803	      2.46390224	     -0.15371731	      0.94462909	     -0.57802127	     36.77313538	    -12.62102799	     -6.55040146	     37.03493168	      0.64638150	     -1.68521668	     -5.83955449	     -7.50019808	     39.66167260	    -11.09989886	     -5.27192260	     34.96990899	      0.61034005	    -11.97499339	     -2.54667272	     -7.50019808	    -12.01360566	     -0.89957775	    -14.37476159	     68.26647351	    -38.44915698	     37.10893662	    105.94545151	     91.25101329	    -55.49275323	    -37.64584122	    -84.64079961	    149.92102100	    118.91028383
